<mxfile host="app.diagrams.net" agent="Mozilla/5.0 (Windows NT 10.0; Win64; x64) AppleWebKit/537.36 (KHTML, like Gecko) Chrome/136.0.0.0 Safari/537.36 Edg/136.0.0.0" version="26.0.16">
  <diagram name="Page-1" id="AMXWV3zxx2AqXyukk0Ai">
    <mxGraphModel dx="1426" dy="751" grid="1" gridSize="10" guides="1" tooltips="1" connect="1" arrows="1" fold="1" page="1" pageScale="1" pageWidth="850" pageHeight="1100" math="0" shadow="0">
      <root>
        <mxCell id="0" />
        <mxCell id="1" parent="0" />
        <mxCell id="K1ztfGsYkskTR4_yVOU--4" style="edgeStyle=orthogonalEdgeStyle;rounded=0;orthogonalLoop=1;jettySize=auto;html=1;exitX=0.5;exitY=1;exitDx=0;exitDy=0;entryX=0.5;entryY=0;entryDx=0;entryDy=0;" edge="1" parent="1" source="K1ztfGsYkskTR4_yVOU--1" target="K1ztfGsYkskTR4_yVOU--3">
          <mxGeometry relative="1" as="geometry" />
        </mxCell>
        <mxCell id="K1ztfGsYkskTR4_yVOU--1" value="www.foobar.com" style="rounded=0;whiteSpace=wrap;html=1;" vertex="1" parent="1">
          <mxGeometry x="365" y="40" width="120" height="60" as="geometry" />
        </mxCell>
        <mxCell id="K1ztfGsYkskTR4_yVOU--2" value="User on web browser" style="text;html=1;align=center;verticalAlign=middle;whiteSpace=wrap;rounded=0;" vertex="1" parent="1">
          <mxGeometry x="270" y="55" width="60" height="30" as="geometry" />
        </mxCell>
        <mxCell id="K1ztfGsYkskTR4_yVOU--7" value="No IP cached" style="edgeStyle=orthogonalEdgeStyle;rounded=0;orthogonalLoop=1;jettySize=auto;html=1;exitX=1;exitY=0.5;exitDx=0;exitDy=0;entryX=0;entryY=0.5;entryDx=0;entryDy=0;" edge="1" parent="1" source="K1ztfGsYkskTR4_yVOU--3" target="K1ztfGsYkskTR4_yVOU--5">
          <mxGeometry relative="1" as="geometry" />
        </mxCell>
        <mxCell id="K1ztfGsYkskTR4_yVOU--13" value="IP cached&lt;br&gt;-&lt;br&gt;browser connects" style="edgeStyle=orthogonalEdgeStyle;rounded=0;orthogonalLoop=1;jettySize=auto;html=1;exitX=0.5;exitY=1;exitDx=0;exitDy=0;entryX=0.5;entryY=0;entryDx=0;entryDy=0;" edge="1" parent="1" source="K1ztfGsYkskTR4_yVOU--3" target="K1ztfGsYkskTR4_yVOU--12">
          <mxGeometry relative="1" as="geometry" />
        </mxCell>
        <mxCell id="K1ztfGsYkskTR4_yVOU--3" value="Cache check for corresponding IP" style="rounded=0;whiteSpace=wrap;html=1;" vertex="1" parent="1">
          <mxGeometry x="365" y="160" width="120" height="60" as="geometry" />
        </mxCell>
        <mxCell id="K1ztfGsYkskTR4_yVOU--9" style="edgeStyle=orthogonalEdgeStyle;rounded=0;orthogonalLoop=1;jettySize=auto;html=1;exitX=0.5;exitY=1;exitDx=0;exitDy=0;entryX=0.5;entryY=0;entryDx=0;entryDy=0;" edge="1" parent="1" source="K1ztfGsYkskTR4_yVOU--5" target="K1ztfGsYkskTR4_yVOU--8">
          <mxGeometry relative="1" as="geometry" />
        </mxCell>
        <mxCell id="K1ztfGsYkskTR4_yVOU--5" value="DNS query" style="rounded=0;whiteSpace=wrap;html=1;" vertex="1" parent="1">
          <mxGeometry x="630" y="160" width="120" height="60" as="geometry" />
        </mxCell>
        <mxCell id="K1ztfGsYkskTR4_yVOU--11" style="edgeStyle=orthogonalEdgeStyle;rounded=0;orthogonalLoop=1;jettySize=auto;html=1;exitX=0.5;exitY=1;exitDx=0;exitDy=0;entryX=0.5;entryY=0;entryDx=0;entryDy=0;" edge="1" parent="1" source="K1ztfGsYkskTR4_yVOU--8" target="K1ztfGsYkskTR4_yVOU--10">
          <mxGeometry relative="1" as="geometry" />
        </mxCell>
        <mxCell id="K1ztfGsYkskTR4_yVOU--8" value="Resolver finds the appropriate IP address(es)" style="rounded=0;whiteSpace=wrap;html=1;" vertex="1" parent="1">
          <mxGeometry x="630" y="290" width="120" height="60" as="geometry" />
        </mxCell>
        <mxCell id="K1ztfGsYkskTR4_yVOU--14" value="Browser connects" style="edgeStyle=orthogonalEdgeStyle;rounded=0;orthogonalLoop=1;jettySize=auto;html=1;exitX=0.5;exitY=1;exitDx=0;exitDy=0;entryX=1;entryY=0.5;entryDx=0;entryDy=0;" edge="1" parent="1" source="K1ztfGsYkskTR4_yVOU--10" target="K1ztfGsYkskTR4_yVOU--12">
          <mxGeometry x="-0.6721" relative="1" as="geometry">
            <mxPoint as="offset" />
          </mxGeometry>
        </mxCell>
        <mxCell id="K1ztfGsYkskTR4_yVOU--10" value="IP address is sent back to the browser and cached" style="rounded=0;whiteSpace=wrap;html=1;" vertex="1" parent="1">
          <mxGeometry x="630" y="420" width="120" height="60" as="geometry" />
        </mxCell>
        <mxCell id="K1ztfGsYkskTR4_yVOU--12" value="server" style="rounded=0;whiteSpace=wrap;html=1;" vertex="1" parent="1">
          <mxGeometry x="365" y="550" width="120" height="60" as="geometry" />
        </mxCell>
      </root>
    </mxGraphModel>
  </diagram>
</mxfile>
